<svg width="18" height="17" viewBox="0 0 18 17" fill="none" xmlns="http://www.w3.org/2000/svg">
<path fill-rule="evenodd" clip-rule="evenodd" d="M14 2.3364C13.7798 2.3364 13.5686 2.42387 13.4129 2.57957L3.17988 12.8126L2.78849 14.3782L4.35406 13.9868L14.5871 3.75375C14.6642 3.67665 14.7254 3.58512 14.7671 3.48439C14.8088 3.38366 14.8303 3.27569 14.8303 3.16666C14.8303 3.05763 14.8088 2.94967 14.7671 2.84893C14.7254 2.7482 14.6642 2.65667 14.5871 2.57957C14.51 2.50248 14.4185 2.44132 14.3178 2.3996C14.217 2.35787 14.1091 2.3364 14 2.3364ZM12.0871 1.25375C12.5944 0.746413 13.2825 0.461395 14 0.461395C14.3553 0.461395 14.7071 0.531369 15.0353 0.667321C15.3635 0.803274 15.6617 1.00254 15.9129 1.25375C16.1641 1.50496 16.3634 1.80318 16.4994 2.1314C16.6353 2.45962 16.7053 2.8114 16.7053 3.16666C16.7053 3.52192 16.6353 3.87371 16.4994 4.20192C16.3634 4.53014 16.1641 4.82837 15.9129 5.07958L5.49627 15.4962C5.37612 15.6164 5.22557 15.7016 5.06073 15.7428L1.7274 16.5762C1.40792 16.656 1.06996 16.5624 0.837107 16.3296C0.604251 16.0967 0.510642 15.7588 0.590511 15.4393L1.42384 12.106C1.46506 11.9411 1.55029 11.7906 1.67044 11.6704L12.0871 1.25375ZM8.06252 15.6667C8.06252 15.1489 8.48225 14.7292 9.00002 14.7292H16.5C17.0178 14.7292 17.4375 15.1489 17.4375 15.6667C17.4375 16.1844 17.0178 16.6042 16.5 16.6042L9.00002 16.6042C8.48225 16.6042 8.06252 16.1844 8.06252 15.6667Z" fill="#595959"/>
</svg>
