<svg width="18" height="20" viewBox="0 0 18 20" fill="none" xmlns="http://www.w3.org/2000/svg">
<path fill-rule="evenodd" clip-rule="evenodd" d="M7.33333 2.60417C7.13995 2.60417 6.95448 2.68099 6.81774 2.81774C6.68099 2.95449 6.60417 3.13995 6.60417 3.33334L6.60417 4.06251L11.3958 4.06251V3.33334C11.3958 3.13995 11.319 2.95449 11.1823 2.81774C11.0455 2.68099 10.8601 2.60417 10.6667 2.60417L7.33333 2.60417ZM13.2708 4.06251H14.8333C14.8335 4.06251 14.8331 4.06251 14.8333 4.06251L16.5 4.06251C17.0178 4.06251 17.4375 4.48224 17.4375 5.00001C17.4375 5.51777 17.0178 5.93751 16.5 5.93751H15.7708L15.7708 16.6667C15.7708 17.3573 15.4965 18.0197 15.0081 18.5081C14.5197 18.9965 13.8573 19.2708 13.1667 19.2708L4.83333 19.2708C4.14266 19.2708 3.48028 18.9965 2.99191 18.5081C2.50353 18.0197 2.22917 17.3573 2.22917 16.6667L2.22917 5.93751H1.5C0.982233 5.93751 0.5625 5.51777 0.5625 5.00001C0.5625 4.48224 0.982233 4.06251 1.5 4.06251L4.72917 4.06251L4.72917 3.33334C4.72917 2.64267 5.00353 1.98029 5.49191 1.49191C5.98029 1.00354 6.64267 0.729172 7.33333 0.729172L10.6667 0.729172C11.3573 0.729172 12.0197 1.00354 12.5081 1.49191C12.9965 1.98029 13.2708 2.64267 13.2708 3.33334V4.06251ZM4.10417 5.93751L4.10417 16.6667C4.10417 16.8601 4.18099 17.0455 4.31773 17.1823C4.45448 17.319 4.63995 17.3958 4.83333 17.3958L13.1667 17.3958C13.3601 17.3958 13.5455 17.319 13.6823 17.1823C13.819 17.0455 13.8958 16.8601 13.8958 16.6667L13.8958 5.93751L4.10417 5.93751ZM7.33333 8.22917C7.8511 8.22917 8.27083 8.64891 8.27083 9.16667V14.1667C8.27083 14.6844 7.8511 15.1042 7.33333 15.1042C6.81557 15.1042 6.39583 14.6844 6.39583 14.1667V9.16667C6.39583 8.64891 6.81557 8.22917 7.33333 8.22917ZM10.6667 8.22917C11.1844 8.22917 11.6042 8.64891 11.6042 9.16667V14.1667C11.6042 14.6844 11.1844 15.1042 10.6667 15.1042C10.1489 15.1042 9.72917 14.6844 9.72917 14.1667V9.16667C9.72917 8.64891 10.1489 8.22917 10.6667 8.22917Z" fill="#595959"/>
</svg>
