<svg width="136" height="39" viewBox="0 0 136 39" fill="none" xmlns="http://www.w3.org/2000/svg">
<path d="M28.8805 10.9924C28.6027 10.5356 28.1855 10.18 27.6905 9.97804L3.45285 0.185432C3.07069 0.029658 2.65598 -0.0293524 2.24554 0.0136397C1.8351 0.0566317 1.44162 0.200296 1.10003 0.431879C0.758447 0.663462 0.479323 0.9758 0.287439 1.34117C0.0955547 1.70653 -0.00315342 2.11362 7.68045e-05 2.52629V14.6208C7.68045e-05 15.6449 0.624307 16.5715 1.57041 16.9616L28.8805 28.0027C29.1341 27.6125 29.2706 27.1444 29.2609 26.6762V12.3189C29.2609 11.8507 29.1341 11.3826 28.8805 10.9827V10.9924Z" fill="url(#paint0_linear_27_1085)"/>
<path d="M28.9 10.9923L7.86151 19.4974L1.57044 22.0334C1.10493 22.2222 0.706613 22.5461 0.426752 22.9633C0.146891 23.3805 -0.00169948 23.8719 0.000107846 24.3742V36.4882C0.000863343 36.8992 0.102278 37.3038 0.295487 37.6665C0.488696 38.0293 0.767818 38.3392 1.10846 38.5692C1.44909 38.7992 1.84088 38.9422 2.24956 38.9858C2.65824 39.0294 3.07139 38.9722 3.45288 38.8193L27.7003 29.0169C28.188 28.8121 28.6074 28.4611 28.8805 28.0027C29.1341 27.6028 29.2706 27.1444 29.2609 26.6762V12.3189C29.2609 11.8507 29.1438 11.3922 28.9 10.9923Z" fill="#FFE500"/>
<path d="M28.8902 10.9923L28.9878 11.1581C29.1633 11.519 29.2609 11.9093 29.2609 12.3189L29.2609 12.2895L29.2609 26.6762C29.2609 27.1444 29.1341 27.6028 28.8805 28.0027L7.86151 19.4974L28.8902 10.9923Z" fill="url(#paint1_linear_27_1085)"/>
<path d="M51.1581 22.4376C51.1581 20.6685 50.2037 19.4115 48.5975 18.7597C49.226 18.0614 49.5286 17.2001 49.5286 16.1759C49.5286 13.499 47.294 11.6368 44.3377 11.6368H38.7977V27H45.9672C48.9234 27 51.1581 25.0912 51.1581 22.4376ZM44.0817 15.012C45.0361 15.012 45.618 15.5474 45.618 16.3621C45.618 17.1769 45.0361 17.7122 44.0817 17.7122H42.6385V15.012H44.0817ZM47.2474 22.2747C47.2474 23.1825 46.6655 23.6248 45.7111 23.6248H42.6385V20.9246H45.7111C46.6655 20.9246 47.2474 21.3668 47.2474 22.2747Z" fill="black"/>
<path d="M52.5087 21.1806C52.4389 24.5093 55.3719 27.3492 58.8402 27.2793C62.3086 27.3492 65.2648 24.5093 65.195 21.1806C65.2648 17.8519 62.3086 15.012 58.8402 15.0819C55.3719 15.012 52.4389 17.8519 52.5087 21.1806ZM61.0981 21.1806C61.0981 22.5773 60.167 23.6015 58.8635 23.6015C57.5367 23.6015 56.6056 22.6471 56.6056 21.1806C56.6056 19.7607 57.5367 18.7597 58.8635 18.7597C60.1438 18.7597 61.0981 19.784 61.0981 21.1806Z" fill="black"/>
<path d="M66.648 21.1806C66.5782 24.5093 69.5112 27.3492 72.9795 27.2793C76.4479 27.3492 79.4042 24.5093 79.3343 21.1806C79.4042 17.8519 76.4479 15.012 72.9795 15.0819C69.5112 15.012 66.5782 17.8519 66.648 21.1806ZM75.2375 21.1806C75.2375 22.5773 74.3064 23.6015 73.0028 23.6015C71.676 23.6015 70.7449 22.6471 70.7449 21.1806C70.7449 19.7607 71.676 18.7597 73.0028 18.7597C74.2831 18.7597 75.2375 19.784 75.2375 21.1806Z" fill="black"/>
<path d="M93.9159 27L89.6328 20.5521L93.6366 15.3612H89.0043L85.373 20.0633V9.54181H81.3693V27H85.373V20.8547L89.5164 27H93.9159Z" fill="black"/>
<path d="M105.391 20.2495C105.391 16.8975 103.366 15.0819 100.107 15.0819C97.9886 15.0819 96.4057 15.8268 94.8461 17.4096L96.7083 19.9469C97.8256 18.946 98.5705 18.527 99.618 18.527C100.828 18.527 101.387 19.1089 101.387 20.0167V20.2029H98.943C96.1264 20.2029 94.3806 21.5065 94.3806 23.6713C94.3806 25.6266 95.847 27.2793 98.3843 27.2793C99.7577 27.2793 100.875 26.8603 101.736 26.0456V27H105.391V20.2495ZM101.387 22.7402C101.387 23.7877 100.642 24.4395 99.618 24.4395C98.8731 24.4395 98.4309 24.0903 98.4309 23.5316C98.4309 22.973 98.8266 22.6471 99.5016 22.6471H101.387V22.7402Z" fill="black"/>
<path d="M120.467 21.1573C120.467 17.6191 118.14 15.0819 114.881 15.0819C113.391 15.0819 112.274 15.5707 111.552 16.5716V15.3612H107.898V31.19H111.901V26.2086C112.669 26.9302 113.647 27.2793 114.881 27.2793C118.093 27.2793 120.467 24.6955 120.467 21.1573ZM116.371 21.1806C116.371 22.7402 115.323 23.648 114.089 23.648C112.856 23.648 111.831 22.7402 111.831 21.1573C111.831 19.5745 112.856 18.7132 114.089 18.7132C115.37 18.7132 116.371 19.621 116.371 21.1806Z" fill="black"/>
<path d="M135.061 21.1573C135.061 17.6191 132.734 15.0819 129.475 15.0819C127.985 15.0819 126.868 15.5707 126.146 16.5716V15.3612H122.492V31.19H126.495V26.2086C127.263 26.9302 128.241 27.2793 129.475 27.2793C132.687 27.2793 135.061 24.6955 135.061 21.1573ZM130.965 21.1806C130.965 22.7402 129.917 23.648 128.683 23.648C127.45 23.648 126.425 22.7402 126.425 21.1573C126.425 19.5745 127.45 18.7132 128.683 18.7132C129.964 18.7132 130.965 19.621 130.965 21.1806Z" fill="black"/>
<defs>
<linearGradient id="paint0_linear_27_1085" x1="67.5298" y1="5.59679" x2="67.5298" y2="28.6897" gradientUnits="userSpaceOnUse">
<stop/>
<stop offset="1" stop-color="#6A6767"/>
</linearGradient>
<linearGradient id="paint1_linear_27_1085" x1="135.059" y1="10.9923" x2="135.059" y2="28.0026" gradientUnits="userSpaceOnUse">
<stop stop-color="#FFE500"/>
<stop offset="1" stop-color="#6A6767"/>
</linearGradient>
</defs>
</svg>
